<svg xmlns="http://www.w3.org/2000/svg" version="1.1" xmlns:xlink="http://www.w3.org/1999/xlink" xmlns:svgjs="http://svgjs.dev/svgjs" width="1440" height="560" preserveAspectRatio="none" viewBox="0 0 1440 560"><g mask="url(&quot;#SvgjsMask1006&quot;)" fill="none"><rect width="1440" height="560" x="0" y="0" fill="url(&quot;#SvgjsLinearGradient1007&quot;)"></rect><path d="M1440 0L797.88 0L1440 258.99z" fill="rgba(255, 255, 255, .1)"></path><path d="M797.88 0L1440 258.99L1440 378.24L557.25 0z" fill="rgba(255, 255, 255, .075)"></path><path d="M557.25 0L1440 378.24L1440 384.52L353.36 0z" fill="rgba(255, 255, 255, .05)"></path><path d="M353.3600000000001 0L1440 384.52L1440 417.72999999999996L256.53000000000014 0z" fill="rgba(255, 255, 255, .025)"></path><path d="M0 560L626.24 560L0 537.85z" fill="rgba(0, 0, 0, .1)"></path><path d="M0 537.85L626.24 560L897.81 560L0 306.73z" fill="rgba(0, 0, 0, .075)"></path><path d="M0 306.73L897.81 560L901.1199999999999 560L0 287.52000000000004z" fill="rgba(0, 0, 0, .05)"></path><path d="M0 287.52L901.1199999999999 560L1017.6199999999999 560L0 162.14999999999998z" fill="rgba(0, 0, 0, .025)"></path></g><defs><mask id="SvgjsMask1006"><rect width="1440" height="560" fill="#ffffff"></rect></mask><linearGradient x1="15.28%" y1="-39.29%" x2="84.72%" y2="139.29%" gradientUnits="userSpaceOnUse" id="SvgjsLinearGradient1007"><stop stop-color="#0e2a47" offset="0"></stop><stop stop-color="#00459e" offset="1"></stop></linearGradient></defs></svg>